<mxfile host="app.diagrams.net" modified="2020-04-07T04:00:55.744Z" agent="5.0 (Windows NT 10.0; Win64; x64) AppleWebKit/537.36 (KHTML, like Gecko) Chrome/80.0.3987.163 Safari/537.36" etag="3YSyRNt5Ce1OBJ0dWoxw" version="12.9.8" type="github">
  <diagram id="erlREkwgcqPjmQTyh6Qf" name="Page-1">
    <mxGraphModel dx="806" dy="522" grid="1" gridSize="10" guides="1" tooltips="1" connect="1" arrows="1" fold="1" page="1" pageScale="1" pageWidth="827" pageHeight="1169" math="0" shadow="0">
      <root>
        <mxCell id="0" />
        <mxCell id="1" parent="0" />
        <mxCell id="htnW6Xj3QmJztbO_Dg7v-1" value="Dokter" style="rounded=0;whiteSpace=wrap;html=1;" parent="1" vertex="1">
          <mxGeometry x="320" y="390" width="120" height="60" as="geometry" />
        </mxCell>
        <mxCell id="htnW6Xj3QmJztbO_Dg7v-2" value="Pasien" style="rounded=0;whiteSpace=wrap;html=1;" parent="1" vertex="1">
          <mxGeometry x="320" y="170" width="120" height="60" as="geometry" />
        </mxCell>
        <mxCell id="htnW6Xj3QmJztbO_Dg7v-3" value="merawat" style="rhombus;whiteSpace=wrap;html=1;" parent="1" vertex="1">
          <mxGeometry x="340" y="270" width="80" height="80" as="geometry" />
        </mxCell>
        <mxCell id="htnW6Xj3QmJztbO_Dg7v-5" value="1" style="endArrow=none;html=1;exitX=0.5;exitY=0;exitDx=0;exitDy=0;entryX=0.5;entryY=1;entryDx=0;entryDy=0;" parent="1" source="htnW6Xj3QmJztbO_Dg7v-1" target="htnW6Xj3QmJztbO_Dg7v-3" edge="1">
          <mxGeometry width="50" height="50" relative="1" as="geometry">
            <mxPoint x="470" y="300" as="sourcePoint" />
            <mxPoint x="520" y="250" as="targetPoint" />
          </mxGeometry>
        </mxCell>
        <mxCell id="htnW6Xj3QmJztbO_Dg7v-8" value="n" style="endArrow=none;html=1;entryX=0.5;entryY=1;entryDx=0;entryDy=0;exitX=0.5;exitY=0;exitDx=0;exitDy=0;" parent="1" source="htnW6Xj3QmJztbO_Dg7v-3" target="htnW6Xj3QmJztbO_Dg7v-2" edge="1">
          <mxGeometry width="50" height="50" relative="1" as="geometry">
            <mxPoint x="470" y="300" as="sourcePoint" />
            <mxPoint x="520" y="250" as="targetPoint" />
            <Array as="points" />
          </mxGeometry>
        </mxCell>
        <mxCell id="htnW6Xj3QmJztbO_Dg7v-9" value="Apotek" style="rounded=0;whiteSpace=wrap;html=1;" parent="1" vertex="1">
          <mxGeometry x="680" y="390" width="120" height="60" as="geometry" />
        </mxCell>
        <mxCell id="htnW6Xj3QmJztbO_Dg7v-10" value="mengambil" style="rhombus;whiteSpace=wrap;html=1;" parent="1" vertex="1">
          <mxGeometry x="520" y="160" width="80" height="80" as="geometry" />
        </mxCell>
        <mxCell id="htnW6Xj3QmJztbO_Dg7v-14" value="memberi resep" style="rhombus;whiteSpace=wrap;html=1;" parent="1" vertex="1">
          <mxGeometry x="510" y="380" width="80" height="80" as="geometry" />
        </mxCell>
        <mxCell id="htnW6Xj3QmJztbO_Dg7v-15" value="1" style="endArrow=none;html=1;exitX=1;exitY=0.5;exitDx=0;exitDy=0;entryX=0;entryY=0.5;entryDx=0;entryDy=0;" parent="1" source="htnW6Xj3QmJztbO_Dg7v-1" target="htnW6Xj3QmJztbO_Dg7v-14" edge="1">
          <mxGeometry width="50" height="50" relative="1" as="geometry">
            <mxPoint x="350" y="460" as="sourcePoint" />
            <mxPoint x="400" y="410" as="targetPoint" />
          </mxGeometry>
        </mxCell>
        <mxCell id="htnW6Xj3QmJztbO_Dg7v-16" value="n" style="endArrow=none;html=1;exitX=1;exitY=0.5;exitDx=0;exitDy=0;" parent="1" source="htnW6Xj3QmJztbO_Dg7v-14" target="htnW6Xj3QmJztbO_Dg7v-9" edge="1">
          <mxGeometry width="50" height="50" relative="1" as="geometry">
            <mxPoint x="590" y="460" as="sourcePoint" />
            <mxPoint x="640" y="410" as="targetPoint" />
          </mxGeometry>
        </mxCell>
        <mxCell id="htnW6Xj3QmJztbO_Dg7v-19" value="Obat" style="rounded=0;whiteSpace=wrap;html=1;" parent="1" vertex="1">
          <mxGeometry x="680" y="170" width="120" height="60" as="geometry" />
        </mxCell>
        <mxCell id="htnW6Xj3QmJztbO_Dg7v-20" value="1" style="endArrow=none;html=1;exitX=1;exitY=0.5;exitDx=0;exitDy=0;entryX=0;entryY=0.5;entryDx=0;entryDy=0;" parent="1" source="htnW6Xj3QmJztbO_Dg7v-2" target="htnW6Xj3QmJztbO_Dg7v-10" edge="1">
          <mxGeometry width="50" height="50" relative="1" as="geometry">
            <mxPoint x="460" y="270" as="sourcePoint" />
            <mxPoint x="510" y="220" as="targetPoint" />
          </mxGeometry>
        </mxCell>
        <mxCell id="htnW6Xj3QmJztbO_Dg7v-21" value="n" style="endArrow=none;html=1;exitX=1;exitY=0.5;exitDx=0;exitDy=0;entryX=0;entryY=0.5;entryDx=0;entryDy=0;" parent="1" source="htnW6Xj3QmJztbO_Dg7v-10" target="htnW6Xj3QmJztbO_Dg7v-19" edge="1">
          <mxGeometry width="50" height="50" relative="1" as="geometry">
            <mxPoint x="610" y="260" as="sourcePoint" />
            <mxPoint x="660" y="210" as="targetPoint" />
          </mxGeometry>
        </mxCell>
        <mxCell id="htnW6Xj3QmJztbO_Dg7v-22" value="menyediakan" style="rhombus;whiteSpace=wrap;html=1;" parent="1" vertex="1">
          <mxGeometry x="700" y="270" width="80" height="80" as="geometry" />
        </mxCell>
        <mxCell id="htnW6Xj3QmJztbO_Dg7v-23" value="n" style="endArrow=none;html=1;exitX=0.5;exitY=0;exitDx=0;exitDy=0;entryX=0.5;entryY=1;entryDx=0;entryDy=0;" parent="1" source="htnW6Xj3QmJztbO_Dg7v-22" target="htnW6Xj3QmJztbO_Dg7v-19" edge="1">
          <mxGeometry width="50" height="50" relative="1" as="geometry">
            <mxPoint x="810" y="280" as="sourcePoint" />
            <mxPoint x="860" y="230" as="targetPoint" />
          </mxGeometry>
        </mxCell>
        <mxCell id="htnW6Xj3QmJztbO_Dg7v-26" value="n" style="endArrow=none;html=1;" parent="1" source="htnW6Xj3QmJztbO_Dg7v-22" edge="1">
          <mxGeometry width="50" height="50" relative="1" as="geometry">
            <mxPoint x="740" y="400" as="sourcePoint" />
            <mxPoint x="740" y="390" as="targetPoint" />
          </mxGeometry>
        </mxCell>
        <mxCell id="htnW6Xj3QmJztbO_Dg7v-27" value="Reseptionis" style="rounded=0;whiteSpace=wrap;html=1;" parent="1" vertex="1">
          <mxGeometry x="10" y="170" width="120" height="60" as="geometry" />
        </mxCell>
        <mxCell id="htnW6Xj3QmJztbO_Dg7v-28" value="Mendaftar" style="rhombus;whiteSpace=wrap;html=1;" parent="1" vertex="1">
          <mxGeometry x="180" y="160" width="80" height="80" as="geometry" />
        </mxCell>
        <mxCell id="htnW6Xj3QmJztbO_Dg7v-29" value="n" style="endArrow=none;html=1;exitX=1;exitY=0.5;exitDx=0;exitDy=0;entryX=0;entryY=0.5;entryDx=0;entryDy=0;" parent="1" source="htnW6Xj3QmJztbO_Dg7v-28" target="htnW6Xj3QmJztbO_Dg7v-2" edge="1">
          <mxGeometry width="50" height="50" relative="1" as="geometry">
            <mxPoint x="280" y="240" as="sourcePoint" />
            <mxPoint x="330" y="190" as="targetPoint" />
          </mxGeometry>
        </mxCell>
        <mxCell id="htnW6Xj3QmJztbO_Dg7v-30" value="1" style="endArrow=none;html=1;exitX=1;exitY=0.5;exitDx=0;exitDy=0;entryX=0;entryY=0.5;entryDx=0;entryDy=0;" parent="1" source="htnW6Xj3QmJztbO_Dg7v-27" target="htnW6Xj3QmJztbO_Dg7v-28" edge="1">
          <mxGeometry width="50" height="50" relative="1" as="geometry">
            <mxPoint x="130" y="340" as="sourcePoint" />
            <mxPoint x="180" y="290" as="targetPoint" />
          </mxGeometry>
        </mxCell>
        <mxCell id="SR7DkrhsRvl-Uzpgtkev-1" value="&lt;u&gt;no_ktp&lt;/u&gt;" style="ellipse;whiteSpace=wrap;html=1;" vertex="1" parent="1">
          <mxGeometry x="335" y="50" width="90" height="60" as="geometry" />
        </mxCell>
        <mxCell id="SR7DkrhsRvl-Uzpgtkev-2" value="" style="endArrow=none;html=1;entryX=0.5;entryY=1;entryDx=0;entryDy=0;exitX=0.5;exitY=0;exitDx=0;exitDy=0;" edge="1" parent="1" source="htnW6Xj3QmJztbO_Dg7v-2" target="SR7DkrhsRvl-Uzpgtkev-1">
          <mxGeometry width="50" height="50" relative="1" as="geometry">
            <mxPoint x="390" y="300" as="sourcePoint" />
            <mxPoint x="440" y="250" as="targetPoint" />
          </mxGeometry>
        </mxCell>
        <mxCell id="SR7DkrhsRvl-Uzpgtkev-3" value="&lt;u&gt;NIP&lt;/u&gt;" style="ellipse;whiteSpace=wrap;html=1;" vertex="1" parent="1">
          <mxGeometry x="330" y="480" width="100" height="50" as="geometry" />
        </mxCell>
        <mxCell id="SR7DkrhsRvl-Uzpgtkev-4" value="" style="endArrow=none;html=1;exitX=0.5;exitY=0;exitDx=0;exitDy=0;entryX=0.5;entryY=1;entryDx=0;entryDy=0;" edge="1" parent="1" source="SR7DkrhsRvl-Uzpgtkev-3" target="htnW6Xj3QmJztbO_Dg7v-1">
          <mxGeometry width="50" height="50" relative="1" as="geometry">
            <mxPoint x="390" y="300" as="sourcePoint" />
            <mxPoint x="440" y="250" as="targetPoint" />
          </mxGeometry>
        </mxCell>
        <mxCell id="SR7DkrhsRvl-Uzpgtkev-5" value="&lt;u&gt;no_obat&lt;/u&gt;" style="ellipse;whiteSpace=wrap;html=1;" vertex="1" parent="1">
          <mxGeometry x="690" y="50" width="100" height="50" as="geometry" />
        </mxCell>
        <mxCell id="SR7DkrhsRvl-Uzpgtkev-6" value="" style="endArrow=none;html=1;exitX=0.5;exitY=0;exitDx=0;exitDy=0;entryX=0.5;entryY=1;entryDx=0;entryDy=0;" edge="1" parent="1" source="htnW6Xj3QmJztbO_Dg7v-19" target="SR7DkrhsRvl-Uzpgtkev-5">
          <mxGeometry width="50" height="50" relative="1" as="geometry">
            <mxPoint x="710" y="160" as="sourcePoint" />
            <mxPoint x="760" y="110" as="targetPoint" />
          </mxGeometry>
        </mxCell>
        <mxCell id="SR7DkrhsRvl-Uzpgtkev-7" value="&lt;u&gt;no_ijin_apotek&lt;/u&gt;" style="ellipse;whiteSpace=wrap;html=1;" vertex="1" parent="1">
          <mxGeometry x="690" y="480" width="100" height="50" as="geometry" />
        </mxCell>
        <mxCell id="SR7DkrhsRvl-Uzpgtkev-8" value="" style="endArrow=none;html=1;exitX=0.5;exitY=0;exitDx=0;exitDy=0;entryX=0.5;entryY=1;entryDx=0;entryDy=0;" edge="1" parent="1" source="SR7DkrhsRvl-Uzpgtkev-7" target="htnW6Xj3QmJztbO_Dg7v-9">
          <mxGeometry width="50" height="50" relative="1" as="geometry">
            <mxPoint x="720" y="500" as="sourcePoint" />
            <mxPoint x="770" y="450" as="targetPoint" />
          </mxGeometry>
        </mxCell>
        <mxCell id="SR7DkrhsRvl-Uzpgtkev-9" value="&lt;u&gt;NIK&lt;/u&gt;" style="ellipse;whiteSpace=wrap;html=1;" vertex="1" parent="1">
          <mxGeometry x="25" y="50" width="90" height="60" as="geometry" />
        </mxCell>
        <mxCell id="SR7DkrhsRvl-Uzpgtkev-10" value="" style="endArrow=none;html=1;exitX=0.5;exitY=0;exitDx=0;exitDy=0;entryX=0.5;entryY=1;entryDx=0;entryDy=0;" edge="1" parent="1" source="htnW6Xj3QmJztbO_Dg7v-27" target="SR7DkrhsRvl-Uzpgtkev-9">
          <mxGeometry width="50" height="50" relative="1" as="geometry">
            <mxPoint x="130" y="150" as="sourcePoint" />
            <mxPoint x="180" y="100" as="targetPoint" />
          </mxGeometry>
        </mxCell>
      </root>
    </mxGraphModel>
  </diagram>
</mxfile>
